<?xml version="1.0" encoding="UTF-8" ?>
<svg version="1.1" width="96" height="96" xmlns="http://www.w3.org/2000/svg" shape-rendering="crispEdges">
<rect x="9" y="6" width="2" height="3" fill="#FFFFFF" />
<rect x="8" y="7" width="1" height="4" fill="#FFFFFF" />
<rect x="11" y="7" width="3" height="2" fill="#FFFFFF" />
<rect x="70" y="7" width="4" height="2" fill="#FFFFFF" />
<rect x="14" y="8" width="2" height="2" fill="#FFFFFF" />
<rect x="65" y="8" width="5" height="2" fill="#FFFFFF" />
<rect x="7" y="9" width="1" height="3" fill="#FFFFFF" />
<rect x="9" y="9" width="1" height="1" fill="#FFFFFF" />
<rect x="13" y="9" width="1" height="1" fill="#FFFFFF" />
<rect x="16" y="9" width="2" height="2" fill="#FFFFFF" />
<rect x="59" y="9" width="6" height="2" fill="#FFFFFF" />
<rect x="70" y="9" width="1" height="1" fill="#FFFFFF" />
<rect x="72" y="9" width="3" height="1" fill="#FFFFFF" />
<rect x="6" y="10" width="1" height="3" fill="#FFFFFF" />
<rect x="15" y="10" width="1" height="1" fill="#FFFFFF" />
<rect x="18" y="10" width="3" height="2" fill="#FFFFFF" />
<rect x="54" y="10" width="5" height="2" fill="#FFFFFF" />
<rect x="65" y="10" width="1" height="1" fill="#FFFFFF" />
<rect x="73" y="10" width="2" height="2" fill="#FFFFFF" />
<rect x="5" y="11" width="1" height="6" fill="#FFFFFF" />
<rect x="17" y="11" width="1" height="1" fill="#FFFFFF" />
<rect x="21" y="11" width="2" height="2" fill="#FFFFFF" />
<rect x="49" y="11" width="5" height="2" fill="#FFFFFF" />
<rect x="59" y="11" width="1" height="1" fill="#FFFFFF" />
<rect x="75" y="11" width="1" height="5" fill="#FFFFFF" />
<rect x="4" y="12" width="1" height="3" fill="#FFFFFF" />
<rect x="20" y="12" width="1" height="1" fill="#FFFFFF" />
<rect x="23" y="12" width="3" height="2" fill="#FFFFFF" />
<rect x="44" y="12" width="5" height="2" fill="#FFFFFF" />
<rect x="54" y="12" width="1" height="1" fill="#FFFFFF" />
<rect x="74" y="12" width="1" height="2" fill="#FFFFFF" />
<rect x="22" y="13" width="1" height="1" fill="#FFFFFF" />
<rect x="26" y="13" width="2" height="2" fill="#FFFFFF" />
<rect x="38" y="13" width="6" height="2" fill="#FFFFFF" />
<rect x="49" y="13" width="1" height="1" fill="#FFFFFF" />
<rect x="76" y="13" width="1" height="5" fill="#FFFFFF" />
<rect x="6" y="14" width="1" height="6" fill="#FFFFFF" />
<rect x="25" y="14" width="1" height="1" fill="#FFFFFF" />
<rect x="28" y="14" width="2" height="2" fill="#FFFFFF" />
<rect x="33" y="14" width="5" height="2" fill="#FFFFFF" />
<rect x="44" y="14" width="1" height="1" fill="#FFFFFF" />
<rect x="27" y="15" width="1" height="1" fill="#FFFFFF" />
<rect x="30" y="15" width="3" height="2" fill="#FFFFFF" />
<rect x="38" y="15" width="1" height="1" fill="#FFFFFF" />
<rect x="77" y="15" width="1" height="5" fill="#FFFFFF" />
<rect x="7" y="16" width="1" height="6" fill="#FFFFFF" />
<rect x="29" y="16" width="1" height="1" fill="#FFFFFF" />
<rect x="33" y="16" width="1" height="1" fill="#FFFFFF" />
<rect x="78" y="17" width="1" height="5" fill="#FFFFFF" />
<rect x="8" y="19" width="1" height="5" fill="#FFFFFF" />
<rect x="79" y="19" width="1" height="5" fill="#FFFFFF" />
<rect x="9" y="21" width="1" height="6" fill="#FFFFFF" />
<rect x="80" y="21" width="1" height="5" fill="#FFFFFF" />
<rect x="10" y="23" width="1" height="6" fill="#FFFFFF" />
<rect x="81" y="23" width="1" height="5" fill="#FFFFFF" />
<rect x="82" y="25" width="1" height="5" fill="#FFFFFF" />
<rect x="11" y="26" width="1" height="6" fill="#FFFFFF" />
<rect x="83" y="27" width="1" height="5" fill="#FFFFFF" />
<rect x="12" y="28" width="1" height="6" fill="#FFFFFF" />
<rect x="84" y="29" width="1" height="5" fill="#FFFFFF" />
<rect x="13" y="31" width="1" height="5" fill="#FFFFFF" />
<rect x="85" y="31" width="1" height="5" fill="#FFFFFF" />
<rect x="14" y="33" width="1" height="6" fill="#FFFFFF" />
<rect x="86" y="33" width="1" height="5" fill="#FFFFFF" />
<rect x="15" y="35" width="1" height="6" fill="#FFFFFF" />
<rect x="87" y="35" width="1" height="5" fill="#FFFFFF" />
<rect x="88" y="37" width="1" height="5" fill="#FFFFFF" />
<rect x="16" y="38" width="1" height="5" fill="#FFFFFF" />
<rect x="89" y="39" width="1" height="5" fill="#FFFFFF" />
<rect x="17" y="40" width="1" height="5" fill="#FFFFFF" />
<rect x="90" y="41" width="1" height="27" fill="#FFFFFF" />
<rect x="18" y="42" width="1" height="6" fill="#FFFFFF" />
<rect x="91" y="43" width="1" height="10" fill="#FFFFFF" />
<rect x="19" y="44" width="1" height="6" fill="#FFFFFF" />
<rect x="20" y="47" width="1" height="5" fill="#FFFFFF" />
<rect x="21" y="49" width="1" height="5" fill="#FFFFFF" />
<rect x="22" y="51" width="1" height="6" fill="#FFFFFF" />
<rect x="89" y="52" width="1" height="31" fill="#FFFFFF" />
<rect x="23" y="53" width="1" height="3" fill="#FFFFFF" />
<rect x="20" y="55" width="2" height="2" fill="#FFFFFF" />
<rect x="18" y="56" width="2" height="2" fill="#FFFFFF" />
<rect x="17" y="57" width="1" height="3" fill="#FFFFFF" />
<rect x="20" y="57" width="1" height="1" fill="#FFFFFF" />
<rect x="15" y="58" width="2" height="2" fill="#FFFFFF" />
<rect x="18" y="58" width="1" height="1" fill="#FFFFFF" />
<rect x="12" y="59" width="3" height="2" fill="#FFFFFF" />
<rect x="15" y="60" width="1" height="1" fill="#FFFFFF" />
<rect x="12" y="61" width="2" height="2" fill="#FFFFFF" />
<rect x="11" y="62" width="1" height="12" fill="#FFFFFF" />
<rect x="12" y="63" width="1" height="5" fill="#FFFFFF" />
<rect x="10" y="67" width="1" height="12" fill="#FFFFFF" />
<rect x="88" y="67" width="1" height="24" fill="#FFFFFF" />
<rect x="69" y="71" width="2" height="3" fill="#FFFFFF" />
<rect x="67" y="72" width="2" height="2" fill="#FFFFFF" />
<rect x="9" y="73" width="1" height="9" fill="#FFFFFF" />
<rect x="65" y="73" width="2" height="2" fill="#FFFFFF" />
<rect x="71" y="73" width="1" height="11" fill="#FFFFFF" />
<rect x="63" y="74" width="2" height="2" fill="#FFFFFF" />
<rect x="67" y="74" width="1" height="1" fill="#FFFFFF" />
<rect x="70" y="74" width="1" height="5" fill="#FFFFFF" />
<rect x="61" y="75" width="2" height="2" fill="#FFFFFF" />
<rect x="65" y="75" width="1" height="1" fill="#FFFFFF" />
<rect x="59" y="76" width="2" height="2" fill="#FFFFFF" />
<rect x="63" y="76" width="1" height="1" fill="#FFFFFF" />
<rect x="57" y="77" width="2" height="2" fill="#FFFFFF" />
<rect x="61" y="77" width="1" height="1" fill="#FFFFFF" />
<rect x="8" y="78" width="1" height="4" fill="#FFFFFF" />
<rect x="55" y="78" width="2" height="2" fill="#FFFFFF" />
<rect x="59" y="78" width="1" height="1" fill="#FFFFFF" />
<rect x="72" y="78" width="1" height="9" fill="#FFFFFF" />
<rect x="54" y="79" width="1" height="3" fill="#FFFFFF" />
<rect x="57" y="79" width="1" height="1" fill="#FFFFFF" />
<rect x="10" y="80" width="2" height="2" fill="#FFFFFF" />
<rect x="52" y="80" width="2" height="2" fill="#FFFFFF" />
<rect x="55" y="80" width="1" height="1" fill="#FFFFFF" />
<rect x="12" y="81" width="4" height="2" fill="#FFFFFF" />
<rect x="50" y="81" width="2" height="2" fill="#FFFFFF" />
<rect x="11" y="82" width="1" height="1" fill="#FFFFFF" />
<rect x="16" y="82" width="3" height="2" fill="#FFFFFF" />
<rect x="48" y="82" width="2" height="2" fill="#FFFFFF" />
<rect x="52" y="82" width="1" height="1" fill="#FFFFFF" />
<rect x="87" y="82" width="1" height="9" fill="#FFFFFF" />
<rect x="15" y="83" width="1" height="1" fill="#FFFFFF" />
<rect x="19" y="83" width="4" height="2" fill="#FFFFFF" />
<rect x="46" y="83" width="2" height="2" fill="#FFFFFF" />
<rect x="50" y="83" width="1" height="1" fill="#FFFFFF" />
<rect x="73" y="83" width="1" height="4" fill="#FFFFFF" />
<rect x="18" y="84" width="1" height="1" fill="#FFFFFF" />
<rect x="23" y="84" width="3" height="2" fill="#FFFFFF" />
<rect x="44" y="84" width="2" height="2" fill="#FFFFFF" />
<rect x="48" y="84" width="1" height="1" fill="#FFFFFF" />
<rect x="22" y="85" width="1" height="1" fill="#FFFFFF" />
<rect x="26" y="85" width="4" height="2" fill="#FFFFFF" />
<rect x="42" y="85" width="2" height="2" fill="#FFFFFF" />
<rect x="46" y="85" width="1" height="1" fill="#FFFFFF" />
<rect x="74" y="85" width="1" height="3" fill="#FFFFFF" />
<rect x="25" y="86" width="1" height="1" fill="#FFFFFF" />
<rect x="30" y="86" width="3" height="2" fill="#FFFFFF" />
<rect x="40" y="86" width="2" height="2" fill="#FFFFFF" />
<rect x="44" y="86" width="1" height="1" fill="#FFFFFF" />
<rect x="75" y="86" width="4" height="2" fill="#FFFFFF" />
<rect x="29" y="87" width="1" height="1" fill="#FFFFFF" />
<rect x="33" y="87" width="4" height="2" fill="#FFFFFF" />
<rect x="38" y="87" width="2" height="2" fill="#FFFFFF" />
<rect x="42" y="87" width="1" height="1" fill="#FFFFFF" />
<rect x="79" y="87" width="4" height="2" fill="#FFFFFF" />
<rect x="32" y="88" width="1" height="1" fill="#FFFFFF" />
<rect x="37" y="88" width="1" height="2" fill="#FFFFFF" />
<rect x="40" y="88" width="1" height="1" fill="#FFFFFF" />
<rect x="78" y="88" width="1" height="1" fill="#FFFFFF" />
<rect x="83" y="88" width="4" height="2" fill="#FFFFFF" />
<rect x="36" y="89" width="1" height="1" fill="#FFFFFF" />
<rect x="38" y="89" width="1" height="1" fill="#FFFFFF" />
<rect x="82" y="89" width="1" height="1" fill="#FFFFFF" />
<rect x="86" y="90" width="1" height="1" fill="#FFFFFF" />
</svg>