<?xml version="1.0" encoding="UTF-8" ?>
<svg version="1.1" width="96" height="96" xmlns="http://www.w3.org/2000/svg" shape-rendering="crispEdges">
<rect x="34" y="2" width="5" height="2" fill="#FFFFFF" />
<rect x="67" y="2" width="1" height="6" fill="#FFFFFF" />
<rect x="32" y="3" width="2" height="2" fill="#FFFFFF" />
<rect x="39" y="3" width="10" height="1" fill="#FFFFFF" />
<rect x="68" y="3" width="2" height="2" fill="#FFFFFF" />
<rect x="30" y="4" width="2" height="2" fill="#FFFFFF" />
<rect x="40" y="4" width="13" height="1" fill="#FFFFFF" />
<rect x="70" y="4" width="2" height="1" fill="#FFFFFF" />
<rect x="29" y="5" width="1" height="2" fill="#FFFFFF" />
<rect x="48" y="5" width="6" height="1" fill="#FFFFFF" />
<rect x="66" y="5" width="1" height="7" fill="#FFFFFF" />
<rect x="71" y="5" width="3" height="1" fill="#FFFFFF" />
<rect x="27" y="6" width="2" height="1" fill="#FFFFFF" />
<rect x="52" y="6" width="2" height="4" fill="#FFFFFF" />
<rect x="73" y="6" width="2" height="1" fill="#FFFFFF" />
<rect x="25" y="7" width="3" height="1" fill="#FFFFFF" />
<rect x="74" y="7" width="3" height="1" fill="#FFFFFF" />
<rect x="24" y="8" width="3" height="1" fill="#FFFFFF" />
<rect x="54" y="8" width="1" height="16" fill="#FFFFFF" />
<rect x="76" y="8" width="3" height="1" fill="#FFFFFF" />
<rect x="22" y="9" width="3" height="1" fill="#FFFFFF" />
<rect x="65" y="9" width="1" height="7" fill="#FFFFFF" />
<rect x="78" y="9" width="3" height="1" fill="#FFFFFF" />
<rect x="20" y="10" width="3" height="1" fill="#FFFFFF" />
<rect x="53" y="10" width="1" height="7" fill="#FFFFFF" />
<rect x="80" y="10" width="3" height="1" fill="#FFFFFF" />
<rect x="19" y="11" width="3" height="1" fill="#FFFFFF" />
<rect x="81" y="11" width="2" height="4" fill="#FFFFFF" />
<rect x="17" y="12" width="3" height="1" fill="#FFFFFF" />
<rect x="15" y="13" width="3" height="1" fill="#FFFFFF" />
<rect x="64" y="13" width="1" height="7" fill="#FFFFFF" />
<rect x="14" y="14" width="2" height="1" fill="#FFFFFF" />
<rect x="12" y="15" width="3" height="1" fill="#FFFFFF" />
<rect x="82" y="15" width="2" height="9" fill="#FFFFFF" />
<rect x="10" y="16" width="3" height="1" fill="#FFFFFF" />
<rect x="55" y="16" width="1" height="15" fill="#FFFFFF" />
<rect x="9" y="17" width="2" height="1" fill="#FFFFFF" />
<rect x="9" y="18" width="1" height="3" fill="#FFFFFF" />
<rect x="63" y="18" width="1" height="7" fill="#FFFFFF" />
<rect x="10" y="20" width="1" height="4" fill="#FFFFFF" />
<rect x="11" y="22" width="1" height="4" fill="#FFFFFF" />
<rect x="62" y="22" width="1" height="7" fill="#FFFFFF" />
<rect x="56" y="23" width="1" height="15" fill="#FFFFFF" />
<rect x="12" y="24" width="1" height="5" fill="#FFFFFF" />
<rect x="83" y="24" width="2" height="9" fill="#FFFFFF" />
<rect x="61" y="26" width="1" height="7" fill="#FFFFFF" />
<rect x="13" y="27" width="1" height="5" fill="#FFFFFF" />
<rect x="14" y="29" width="1" height="5" fill="#FFFFFF" />
<rect x="57" y="30" width="1" height="11" fill="#FFFFFF" />
<rect x="15" y="31" width="1" height="6" fill="#FFFFFF" />
<rect x="60" y="31" width="1" height="6" fill="#FFFFFF" />
<rect x="84" y="33" width="2" height="9" fill="#FFFFFF" />
<rect x="16" y="34" width="1" height="5" fill="#FFFFFF" />
<rect x="59" y="35" width="1" height="5" fill="#FFFFFF" />
<rect x="17" y="36" width="1" height="8" fill="#FFFFFF" />
<rect x="18" y="38" width="1" height="4" fill="#FFFFFF" />
<rect x="58" y="38" width="1" height="4" fill="#FFFFFF" />
<rect x="16" y="42" width="1" height="4" fill="#FFFFFF" />
<rect x="85" y="42" width="2" height="9" fill="#FFFFFF" />
<rect x="15" y="44" width="1" height="4" fill="#FFFFFF" />
<rect x="14" y="46" width="1" height="4" fill="#FFFFFF" />
<rect x="13" y="48" width="1" height="4" fill="#FFFFFF" />
<rect x="12" y="50" width="1" height="4" fill="#FFFFFF" />
<rect x="86" y="51" width="2" height="9" fill="#FFFFFF" />
<rect x="11" y="52" width="1" height="4" fill="#FFFFFF" />
<rect x="10" y="54" width="1" height="4" fill="#FFFFFF" />
<rect x="9" y="57" width="1" height="3" fill="#FFFFFF" />
<rect x="8" y="59" width="1" height="3" fill="#FFFFFF" />
<rect x="87" y="60" width="2" height="9" fill="#FFFFFF" />
<rect x="7" y="61" width="1" height="3" fill="#FFFFFF" />
<rect x="6" y="63" width="1" height="3" fill="#FFFFFF" />
<rect x="5" y="65" width="1" height="5" fill="#FFFFFF" />
<rect x="4" y="67" width="1" height="3" fill="#FFFFFF" />
<rect x="6" y="69" width="2" height="2" fill="#FFFFFF" />
<rect x="88" y="69" width="1" height="5" fill="#FFFFFF" />
<rect x="8" y="70" width="2" height="2" fill="#FFFFFF" />
<rect x="89" y="70" width="1" height="2" fill="#FFFFFF" />
<rect x="10" y="71" width="2" height="2" fill="#FFFFFF" />
<rect x="12" y="72" width="2" height="2" fill="#FFFFFF" />
<rect x="14" y="73" width="2" height="2" fill="#FFFFFF" />
<rect x="87" y="73" width="1" height="2" fill="#FFFFFF" />
<rect x="16" y="74" width="2" height="2" fill="#FFFFFF" />
<rect x="84" y="74" width="3" height="1" fill="#FFFFFF" />
<rect x="18" y="75" width="2" height="2" fill="#FFFFFF" />
<rect x="83" y="75" width="3" height="1" fill="#FFFFFF" />
<rect x="20" y="76" width="2" height="2" fill="#FFFFFF" />
<rect x="82" y="76" width="3" height="1" fill="#FFFFFF" />
<rect x="22" y="77" width="2" height="2" fill="#FFFFFF" />
<rect x="80" y="77" width="3" height="1" fill="#FFFFFF" />
<rect x="24" y="78" width="2" height="2" fill="#FFFFFF" />
<rect x="78" y="78" width="4" height="1" fill="#FFFFFF" />
<rect x="26" y="79" width="2" height="2" fill="#FFFFFF" />
<rect x="77" y="79" width="3" height="1" fill="#FFFFFF" />
<rect x="28" y="80" width="2" height="2" fill="#FFFFFF" />
<rect x="76" y="80" width="3" height="1" fill="#FFFFFF" />
<rect x="30" y="81" width="2" height="2" fill="#FFFFFF" />
<rect x="74" y="81" width="3" height="1" fill="#FFFFFF" />
<rect x="32" y="82" width="2" height="1" fill="#FFFFFF" />
<rect x="73" y="82" width="3" height="1" fill="#FFFFFF" />
<rect x="33" y="83" width="4" height="1" fill="#FFFFFF" />
<rect x="71" y="83" width="3" height="1" fill="#FFFFFF" />
<rect x="35" y="84" width="4" height="1" fill="#FFFFFF" />
<rect x="69" y="84" width="4" height="1" fill="#FFFFFF" />
<rect x="37" y="85" width="4" height="1" fill="#FFFFFF" />
<rect x="67" y="85" width="4" height="1" fill="#FFFFFF" />
<rect x="39" y="86" width="4" height="1" fill="#FFFFFF" />
<rect x="67" y="86" width="2" height="1" fill="#FFFFFF" />
<rect x="41" y="87" width="3" height="1" fill="#FFFFFF" />
<rect x="65" y="87" width="3" height="1" fill="#FFFFFF" />
<rect x="43" y="88" width="3" height="1" fill="#FFFFFF" />
<rect x="63" y="88" width="3" height="1" fill="#FFFFFF" />
<rect x="45" y="89" width="4" height="1" fill="#FFFFFF" />
<rect x="61" y="89" width="4" height="1" fill="#FFFFFF" />
<rect x="47" y="90" width="4" height="1" fill="#FFFFFF" />
<rect x="60" y="90" width="3" height="1" fill="#FFFFFF" />
<rect x="49" y="91" width="4" height="1" fill="#FFFFFF" />
<rect x="59" y="91" width="3" height="1" fill="#FFFFFF" />
<rect x="51" y="92" width="3" height="1" fill="#FFFFFF" />
<rect x="58" y="92" width="2" height="1" fill="#FFFFFF" />
<rect x="53" y="93" width="6" height="1" fill="#FFFFFF" />
<rect x="55" y="94" width="2" height="1" fill="#FFFFFF" />
</svg>