<?xml version="1.0" encoding="UTF-8" ?>
<svg version="1.1" width="96" height="96" xmlns="http://www.w3.org/2000/svg" shape-rendering="crispEdges">
<rect x="52" y="2" width="2" height="3" fill="#FFFFFF" />
<rect x="54" y="3" width="2" height="2" fill="#FFFFFF" />
<rect x="50" y="4" width="2" height="2" fill="#FFFFFF" />
<rect x="56" y="4" width="2" height="2" fill="#FFFFFF" />
<rect x="48" y="5" width="2" height="2" fill="#FFFFFF" />
<rect x="52" y="5" width="1" height="1" fill="#FFFFFF" />
<rect x="55" y="5" width="1" height="1" fill="#FFFFFF" />
<rect x="58" y="5" width="2" height="2" fill="#FFFFFF" />
<rect x="16" y="6" width="4" height="2" fill="#FFFFFF" />
<rect x="46" y="6" width="2" height="2" fill="#FFFFFF" />
<rect x="50" y="6" width="1" height="1" fill="#FFFFFF" />
<rect x="57" y="6" width="1" height="1" fill="#FFFFFF" />
<rect x="60" y="6" width="1" height="3" fill="#FFFFFF" />
<rect x="15" y="7" width="1" height="4" fill="#FFFFFF" />
<rect x="20" y="7" width="3" height="2" fill="#FFFFFF" />
<rect x="44" y="7" width="2" height="2" fill="#FFFFFF" />
<rect x="48" y="7" width="1" height="1" fill="#FFFFFF" />
<rect x="59" y="7" width="1" height="1" fill="#FFFFFF" />
<rect x="61" y="7" width="2" height="2" fill="#FFFFFF" />
<rect x="16" y="8" width="1" height="2" fill="#FFFFFF" />
<rect x="19" y="8" width="1" height="1" fill="#FFFFFF" />
<rect x="23" y="8" width="2" height="2" fill="#FFFFFF" />
<rect x="43" y="8" width="1" height="3" fill="#FFFFFF" />
<rect x="46" y="8" width="1" height="1" fill="#FFFFFF" />
<rect x="63" y="8" width="2" height="2" fill="#FFFFFF" />
<rect x="14" y="9" width="1" height="4" fill="#FFFFFF" />
<rect x="22" y="9" width="1" height="1" fill="#FFFFFF" />
<rect x="25" y="9" width="3" height="2" fill="#FFFFFF" />
<rect x="41" y="9" width="2" height="2" fill="#FFFFFF" />
<rect x="44" y="9" width="1" height="1" fill="#FFFFFF" />
<rect x="62" y="9" width="1" height="1" fill="#FFFFFF" />
<rect x="65" y="9" width="2" height="2" fill="#FFFFFF" />
<rect x="13" y="10" width="1" height="5" fill="#FFFFFF" />
<rect x="24" y="10" width="1" height="1" fill="#FFFFFF" />
<rect x="28" y="10" width="3" height="2" fill="#FFFFFF" />
<rect x="39" y="10" width="2" height="2" fill="#FFFFFF" />
<rect x="64" y="10" width="1" height="1" fill="#FFFFFF" />
<rect x="67" y="10" width="1" height="3" fill="#FFFFFF" />
<rect x="27" y="11" width="1" height="1" fill="#FFFFFF" />
<rect x="31" y="11" width="2" height="2" fill="#FFFFFF" />
<rect x="37" y="11" width="2" height="2" fill="#FFFFFF" />
<rect x="41" y="11" width="1" height="1" fill="#FFFFFF" />
<rect x="66" y="11" width="1" height="1" fill="#FFFFFF" />
<rect x="68" y="11" width="2" height="2" fill="#FFFFFF" />
<rect x="12" y="12" width="1" height="4" fill="#FFFFFF" />
<rect x="30" y="12" width="1" height="1" fill="#FFFFFF" />
<rect x="33" y="12" width="4" height="2" fill="#FFFFFF" />
<rect x="39" y="12" width="1" height="1" fill="#FFFFFF" />
<rect x="70" y="12" width="2" height="2" fill="#FFFFFF" />
<rect x="32" y="13" width="1" height="1" fill="#FFFFFF" />
<rect x="37" y="13" width="1" height="2" fill="#FFFFFF" />
<rect x="69" y="13" width="1" height="1" fill="#FFFFFF" />
<rect x="72" y="13" width="2" height="2" fill="#FFFFFF" />
<rect x="11" y="14" width="1" height="4" fill="#FFFFFF" />
<rect x="35" y="14" width="2" height="1" fill="#FFFFFF" />
<rect x="71" y="14" width="1" height="1" fill="#FFFFFF" />
<rect x="74" y="14" width="2" height="2" fill="#FFFFFF" />
<rect x="10" y="15" width="1" height="4" fill="#FFFFFF" />
<rect x="73" y="15" width="1" height="1" fill="#FFFFFF" />
<rect x="76" y="15" width="1" height="3" fill="#FFFFFF" />
<rect x="75" y="16" width="1" height="1" fill="#FFFFFF" />
<rect x="77" y="16" width="2" height="2" fill="#FFFFFF" />
<rect x="9" y="17" width="1" height="4" fill="#FFFFFF" />
<rect x="79" y="17" width="2" height="2" fill="#FFFFFF" />
<rect x="8" y="18" width="1" height="5" fill="#FFFFFF" />
<rect x="78" y="18" width="1" height="1" fill="#FFFFFF" />
<rect x="81" y="18" width="2" height="2" fill="#FFFFFF" />
<rect x="80" y="19" width="1" height="1" fill="#FFFFFF" />
<rect x="83" y="19" width="1" height="3" fill="#FFFFFF" />
<rect x="7" y="20" width="1" height="4" fill="#FFFFFF" />
<rect x="82" y="20" width="1" height="1" fill="#FFFFFF" />
<rect x="84" y="20" width="2" height="2" fill="#FFFFFF" />
<rect x="86" y="21" width="2" height="2" fill="#FFFFFF" />
<rect x="6" y="22" width="1" height="4" fill="#FFFFFF" />
<rect x="85" y="22" width="1" height="1" fill="#FFFFFF" />
<rect x="88" y="22" width="2" height="2" fill="#FFFFFF" />
<rect x="5" y="23" width="1" height="7" fill="#FFFFFF" />
<rect x="87" y="23" width="1" height="1" fill="#FFFFFF" />
<rect x="90" y="23" width="1" height="4" fill="#FFFFFF" />
<rect x="89" y="24" width="1" height="8" fill="#FFFFFF" />
<rect x="4" y="25" width="1" height="3" fill="#FFFFFF" />
<rect x="88" y="26" width="1" height="11" fill="#FFFFFF" />
<rect x="6" y="27" width="1" height="5" fill="#FFFFFF" />
<rect x="7" y="29" width="1" height="6" fill="#FFFFFF" />
<rect x="8" y="31" width="1" height="6" fill="#FFFFFF" />
<rect x="87" y="31" width="1" height="11" fill="#FFFFFF" />
<rect x="9" y="34" width="1" height="5" fill="#FFFFFF" />
<rect x="10" y="36" width="1" height="5" fill="#FFFFFF" />
<rect x="86" y="36" width="1" height="11" fill="#FFFFFF" />
<rect x="11" y="38" width="1" height="6" fill="#FFFFFF" />
<rect x="12" y="40" width="1" height="6" fill="#FFFFFF" />
<rect x="85" y="41" width="1" height="11" fill="#FFFFFF" />
<rect x="13" y="43" width="1" height="5" fill="#FFFFFF" />
<rect x="14" y="45" width="1" height="5" fill="#FFFFFF" />
<rect x="84" y="46" width="1" height="11" fill="#FFFFFF" />
<rect x="15" y="47" width="1" height="17" fill="#FFFFFF" />
<rect x="16" y="50" width="1" height="6" fill="#FFFFFF" />
<rect x="83" y="51" width="1" height="9" fill="#FFFFFF" />
<rect x="14" y="55" width="1" height="17" fill="#FFFFFF" />
<rect x="82" y="56" width="1" height="11" fill="#FFFFFF" />
<rect x="81" y="58" width="1" height="4" fill="#FFFFFF" />
<rect x="33" y="61" width="4" height="2" fill="#FFFFFF" />
<rect x="83" y="61" width="1" height="11" fill="#FFFFFF" />
<rect x="37" y="62" width="5" height="2" fill="#FFFFFF" />
<rect x="13" y="63" width="1" height="13" fill="#FFFFFF" />
<rect x="31" y="63" width="4" height="1" fill="#FFFFFF" />
<rect x="36" y="63" width="1" height="1" fill="#FFFFFF" />
<rect x="42" y="63" width="4" height="2" fill="#FFFFFF" />
<rect x="29" y="64" width="5" height="1" fill="#FFFFFF" />
<rect x="41" y="64" width="1" height="1" fill="#FFFFFF" />
<rect x="46" y="64" width="5" height="4" fill="#FFFFFF" />
<rect x="28" y="65" width="4" height="1" fill="#FFFFFF" />
<rect x="45" y="65" width="1" height="4" fill="#FFFFFF" />
<rect x="51" y="65" width="3" height="2" fill="#FFFFFF" />
<rect x="26" y="66" width="4" height="1" fill="#FFFFFF" />
<rect x="84" y="66" width="1" height="12" fill="#FFFFFF" />
<rect x="24" y="67" width="5" height="1" fill="#FFFFFF" />
<rect x="40" y="67" width="5" height="2" fill="#FFFFFF" />
<rect x="23" y="68" width="4" height="1" fill="#FFFFFF" />
<rect x="35" y="68" width="5" height="2" fill="#FFFFFF" />
<rect x="21" y="69" width="4" height="1" fill="#FFFFFF" />
<rect x="32" y="69" width="3" height="2" fill="#FFFFFF" />
<rect x="40" y="69" width="1" height="1" fill="#FFFFFF" />
<rect x="19" y="70" width="5" height="1" fill="#FFFFFF" />
<rect x="31" y="70" width="1" height="3" fill="#FFFFFF" />
<rect x="35" y="70" width="1" height="1" fill="#FFFFFF" />
<rect x="12" y="71" width="1" height="5" fill="#FFFFFF" />
<rect x="18" y="71" width="4" height="1" fill="#FFFFFF" />
<rect x="29" y="71" width="2" height="2" fill="#FFFFFF" />
<rect x="32" y="71" width="2" height="1" fill="#FFFFFF" />
<rect x="85" y="71" width="1" height="12" fill="#FFFFFF" />
<rect x="16" y="72" width="4" height="1" fill="#FFFFFF" />
<rect x="27" y="72" width="2" height="2" fill="#FFFFFF" />
<rect x="14" y="73" width="5" height="1" fill="#FFFFFF" />
<rect x="25" y="73" width="2" height="2" fill="#FFFFFF" />
<rect x="29" y="73" width="1" height="1" fill="#FFFFFF" />
<rect x="14" y="74" width="3" height="1" fill="#FFFFFF" />
<rect x="24" y="74" width="1" height="3" fill="#FFFFFF" />
<rect x="27" y="74" width="1" height="1" fill="#FFFFFF" />
<rect x="14" y="75" width="1" height="1" fill="#FFFFFF" />
<rect x="22" y="75" width="2" height="2" fill="#FFFFFF" />
<rect x="25" y="75" width="1" height="1" fill="#FFFFFF" />
<rect x="20" y="76" width="2" height="2" fill="#FFFFFF" />
<rect x="18" y="77" width="2" height="2" fill="#FFFFFF" />
<rect x="22" y="77" width="1" height="1" fill="#FFFFFF" />
<rect x="86" y="77" width="1" height="11" fill="#FFFFFF" />
<rect x="16" y="78" width="2" height="2" fill="#FFFFFF" />
<rect x="20" y="78" width="1" height="1" fill="#FFFFFF" />
<rect x="15" y="79" width="1" height="3" fill="#FFFFFF" />
<rect x="18" y="79" width="1" height="1" fill="#FFFFFF" />
<rect x="13" y="80" width="2" height="2" fill="#FFFFFF" />
<rect x="16" y="80" width="1" height="1" fill="#FFFFFF" />
<rect x="11" y="81" width="2" height="2" fill="#FFFFFF" />
<rect x="9" y="82" width="2" height="2" fill="#FFFFFF" />
<rect x="13" y="82" width="1" height="1" fill="#FFFFFF" />
<rect x="87" y="82" width="1" height="9" fill="#FFFFFF" />
<rect x="7" y="83" width="2" height="3" fill="#FFFFFF" />
<rect x="11" y="83" width="1" height="1" fill="#FFFFFF" />
<rect x="6" y="84" width="1" height="2" fill="#FFFFFF" />
<rect x="9" y="84" width="1" height="4" fill="#FFFFFF" />
<rect x="37" y="84" width="5" height="2" fill="#FFFFFF" />
<rect x="32" y="85" width="5" height="2" fill="#FFFFFF" />
<rect x="42" y="85" width="5" height="2" fill="#FFFFFF" />
<rect x="8" y="86" width="1" height="1" fill="#FFFFFF" />
<rect x="10" y="86" width="2" height="2" fill="#FFFFFF" />
<rect x="27" y="86" width="5" height="2" fill="#FFFFFF" />
<rect x="37" y="86" width="1" height="1" fill="#FFFFFF" />
<rect x="41" y="86" width="1" height="1" fill="#FFFFFF" />
<rect x="47" y="86" width="5" height="2" fill="#FFFFFF" />
<rect x="12" y="87" width="1" height="3" fill="#FFFFFF" />
<rect x="22" y="87" width="5" height="2" fill="#FFFFFF" />
<rect x="32" y="87" width="1" height="1" fill="#FFFFFF" />
<rect x="46" y="87" width="1" height="1" fill="#FFFFFF" />
<rect x="52" y="87" width="5" height="2" fill="#FFFFFF" />
<rect x="88" y="87" width="1" height="4" fill="#FFFFFF" />
<rect x="11" y="88" width="1" height="1" fill="#FFFFFF" />
<rect x="13" y="88" width="1" height="3" fill="#FFFFFF" />
<rect x="17" y="88" width="5" height="2" fill="#FFFFFF" />
<rect x="27" y="88" width="1" height="1" fill="#FFFFFF" />
<rect x="51" y="88" width="1" height="1" fill="#FFFFFF" />
<rect x="57" y="88" width="5" height="2" fill="#FFFFFF" />
<rect x="14" y="89" width="3" height="2" fill="#FFFFFF" />
<rect x="22" y="89" width="1" height="1" fill="#FFFFFF" />
<rect x="56" y="89" width="1" height="1" fill="#FFFFFF" />
<rect x="62" y="89" width="5" height="2" fill="#FFFFFF" />
<rect x="86" y="89" width="1" height="3" fill="#FFFFFF" />
<rect x="17" y="90" width="1" height="1" fill="#FFFFFF" />
<rect x="61" y="90" width="1" height="1" fill="#FFFFFF" />
<rect x="67" y="90" width="5" height="2" fill="#FFFFFF" />
<rect x="83" y="90" width="3" height="2" fill="#FFFFFF" />
<rect x="66" y="91" width="1" height="1" fill="#FFFFFF" />
<rect x="72" y="91" width="5" height="2" fill="#FFFFFF" />
<rect x="80" y="91" width="3" height="2" fill="#FFFFFF" />
<rect x="71" y="92" width="1" height="1" fill="#FFFFFF" />
<rect x="77" y="92" width="3" height="2" fill="#FFFFFF" />
<rect x="83" y="92" width="1" height="1" fill="#FFFFFF" />
<rect x="76" y="93" width="1" height="1" fill="#FFFFFF" />
<rect x="80" y="93" width="1" height="1" fill="#FFFFFF" />
</svg>