<?xml version="1.0" encoding="UTF-8" ?>
<svg version="1.1" width="96" height="96" xmlns="http://www.w3.org/2000/svg" shape-rendering="crispEdges">
<rect x="64" y="3" width="5" height="2" fill="#FFFFFF" />
<rect x="57" y="4" width="7" height="2" fill="#FFFFFF" />
<rect x="50" y="5" width="7" height="2" fill="#FFFFFF" />
<rect x="64" y="5" width="1" height="1" fill="#FFFFFF" />
<rect x="67" y="5" width="2" height="4" fill="#FFFFFF" />
<rect x="46" y="6" width="4" height="2" fill="#FFFFFF" />
<rect x="57" y="6" width="1" height="1" fill="#FFFFFF" />
<rect x="45" y="7" width="1" height="5" fill="#FFFFFF" />
<rect x="50" y="7" width="1" height="1" fill="#FFFFFF" />
<rect x="46" y="8" width="1" height="2" fill="#FFFFFF" />
<rect x="69" y="8" width="1" height="6" fill="#FFFFFF" />
<rect x="44" y="9" width="1" height="5" fill="#FFFFFF" />
<rect x="68" y="9" width="1" height="5" fill="#FFFFFF" />
<rect x="43" y="11" width="1" height="5" fill="#FFFFFF" />
<rect x="70" y="12" width="1" height="3" fill="#FFFFFF" />
<rect x="42" y="13" width="1" height="4" fill="#FFFFFF" />
<rect x="71" y="13" width="4" height="2" fill="#FFFFFF" />
<rect x="75" y="14" width="3" height="2" fill="#FFFFFF" />
<rect x="41" y="15" width="1" height="4" fill="#FFFFFF" />
<rect x="74" y="15" width="1" height="1" fill="#FFFFFF" />
<rect x="78" y="15" width="4" height="2" fill="#FFFFFF" />
<rect x="40" y="16" width="1" height="5" fill="#FFFFFF" />
<rect x="77" y="16" width="1" height="1" fill="#FFFFFF" />
<rect x="82" y="16" width="2" height="4" fill="#FFFFFF" />
<rect x="21" y="17" width="3" height="2" fill="#FFFFFF" />
<rect x="81" y="17" width="1" height="1" fill="#FFFFFF" />
<rect x="20" y="18" width="1" height="3" fill="#FFFFFF" />
<rect x="24" y="18" width="2" height="2" fill="#FFFFFF" />
<rect x="39" y="18" width="1" height="5" fill="#FFFFFF" />
<rect x="19" y="19" width="1" height="3" fill="#FFFFFF" />
<rect x="21" y="19" width="1" height="1" fill="#FFFFFF" />
<rect x="23" y="19" width="1" height="1" fill="#FFFFFF" />
<rect x="26" y="19" width="2" height="2" fill="#FFFFFF" />
<rect x="84" y="19" width="1" height="10" fill="#FFFFFF" />
<rect x="18" y="20" width="1" height="3" fill="#FFFFFF" />
<rect x="25" y="20" width="1" height="1" fill="#FFFFFF" />
<rect x="28" y="20" width="2" height="2" fill="#FFFFFF" />
<rect x="38" y="20" width="1" height="5" fill="#FFFFFF" />
<rect x="83" y="20" width="1" height="4" fill="#FFFFFF" />
<rect x="17" y="21" width="1" height="3" fill="#FFFFFF" />
<rect x="27" y="21" width="1" height="1" fill="#FFFFFF" />
<rect x="30" y="21" width="2" height="2" fill="#FFFFFF" />
<rect x="16" y="22" width="1" height="3" fill="#FFFFFF" />
<rect x="29" y="22" width="1" height="1" fill="#FFFFFF" />
<rect x="32" y="22" width="2" height="2" fill="#FFFFFF" />
<rect x="37" y="22" width="1" height="4" fill="#FFFFFF" />
<rect x="15" y="23" width="1" height="3" fill="#FFFFFF" />
<rect x="31" y="23" width="1" height="1" fill="#FFFFFF" />
<rect x="34" y="23" width="2" height="2" fill="#FFFFFF" />
<rect x="85" y="23" width="1" height="10" fill="#FFFFFF" />
<rect x="14" y="24" width="1" height="3" fill="#FFFFFF" />
<rect x="33" y="24" width="1" height="1" fill="#FFFFFF" />
<rect x="36" y="24" width="1" height="2" fill="#FFFFFF" />
<rect x="13" y="25" width="1" height="3" fill="#FFFFFF" />
<rect x="35" y="25" width="1" height="1" fill="#FFFFFF" />
<rect x="12" y="26" width="1" height="3" fill="#FFFFFF" />
<rect x="11" y="27" width="1" height="3" fill="#FFFFFF" />
<rect x="10" y="28" width="1" height="3" fill="#FFFFFF" />
<rect x="86" y="28" width="1" height="8" fill="#FFFFFF" />
<rect x="9" y="29" width="1" height="7" fill="#FFFFFF" />
<rect x="7" y="30" width="2" height="2" fill="#FFFFFF" />
<rect x="8" y="32" width="1" height="2" fill="#FFFFFF" />
<rect x="87" y="32" width="1" height="4" fill="#FFFFFF" />
<rect x="10" y="33" width="1" height="5" fill="#FFFFFF" />
<rect x="84" y="34" width="2" height="2" fill="#FFFFFF" />
<rect x="11" y="35" width="1" height="4" fill="#FFFFFF" />
<rect x="82" y="35" width="2" height="2" fill="#FFFFFF" />
<rect x="80" y="36" width="2" height="2" fill="#FFFFFF" />
<rect x="84" y="36" width="1" height="1" fill="#FFFFFF" />
<rect x="12" y="37" width="1" height="4" fill="#FFFFFF" />
<rect x="78" y="37" width="2" height="3" fill="#FFFFFF" />
<rect x="82" y="37" width="1" height="1" fill="#FFFFFF" />
<rect x="13" y="38" width="1" height="5" fill="#FFFFFF" />
<rect x="80" y="38" width="1" height="1" fill="#FFFFFF" />
<rect x="77" y="39" width="1" height="6" fill="#FFFFFF" />
<rect x="14" y="40" width="1" height="5" fill="#FFFFFF" />
<rect x="33" y="40" width="4" height="2" fill="#FFFFFF" />
<rect x="78" y="40" width="1" height="2" fill="#FFFFFF" />
<rect x="28" y="41" width="5" height="2" fill="#FFFFFF" />
<rect x="76" y="41" width="1" height="6" fill="#FFFFFF" />
<rect x="15" y="42" width="1" height="4" fill="#FFFFFF" />
<rect x="24" y="42" width="4" height="2" fill="#FFFFFF" />
<rect x="33" y="42" width="3" height="2" fill="#FFFFFF" />
<rect x="19" y="43" width="5" height="2" fill="#FFFFFF" />
<rect x="28" y="43" width="1" height="1" fill="#FFFFFF" />
<rect x="16" y="44" width="3" height="2" fill="#FFFFFF" />
<rect x="24" y="44" width="1" height="1" fill="#FFFFFF" />
<rect x="33" y="44" width="2" height="2" fill="#FFFFFF" />
<rect x="75" y="44" width="1" height="5" fill="#FFFFFF" />
<rect x="19" y="45" width="1" height="1" fill="#FFFFFF" />
<rect x="32" y="45" width="1" height="4" fill="#FFFFFF" />
<rect x="31" y="46" width="1" height="5" fill="#FFFFFF" />
<rect x="33" y="46" width="1" height="1" fill="#FFFFFF" />
<rect x="74" y="46" width="1" height="6" fill="#FFFFFF" />
<rect x="30" y="48" width="1" height="4" fill="#FFFFFF" />
<rect x="73" y="48" width="1" height="9" fill="#FFFFFF" />
<rect x="29" y="50" width="1" height="4" fill="#FFFFFF" />
<rect x="28" y="51" width="1" height="5" fill="#FFFFFF" />
<rect x="72" y="51" width="1" height="5" fill="#FFFFFF" />
<rect x="27" y="53" width="1" height="4" fill="#FFFFFF" />
<rect x="71" y="53" width="1" height="3" fill="#FFFFFF" />
<rect x="26" y="55" width="1" height="4" fill="#FFFFFF" />
<rect x="74" y="55" width="2" height="2" fill="#FFFFFF" />
<rect x="25" y="56" width="1" height="5" fill="#FFFFFF" />
<rect x="76" y="56" width="3" height="2" fill="#FFFFFF" />
<rect x="75" y="57" width="1" height="1" fill="#FFFFFF" />
<rect x="79" y="57" width="2" height="2" fill="#FFFFFF" />
<rect x="24" y="58" width="1" height="4" fill="#FFFFFF" />
<rect x="78" y="58" width="1" height="1" fill="#FFFFFF" />
<rect x="81" y="58" width="3" height="2" fill="#FFFFFF" />
<rect x="80" y="59" width="1" height="1" fill="#FFFFFF" />
<rect x="84" y="59" width="2" height="2" fill="#FFFFFF" />
<rect x="23" y="60" width="1" height="3" fill="#FFFFFF" />
<rect x="83" y="60" width="1" height="1" fill="#FFFFFF" />
<rect x="86" y="60" width="2" height="2" fill="#FFFFFF" />
<rect x="22" y="61" width="1" height="3" fill="#FFFFFF" />
<rect x="85" y="61" width="1" height="5" fill="#FFFFFF" />
<rect x="21" y="62" width="1" height="3" fill="#FFFFFF" />
<rect x="86" y="62" width="1" height="2" fill="#FFFFFF" />
<rect x="20" y="63" width="1" height="3" fill="#FFFFFF" />
<rect x="84" y="63" width="1" height="5" fill="#FFFFFF" />
<rect x="19" y="64" width="1" height="3" fill="#FFFFFF" />
<rect x="17" y="65" width="2" height="2" fill="#FFFFFF" />
<rect x="83" y="65" width="1" height="5" fill="#FFFFFF" />
<rect x="16" y="66" width="1" height="3" fill="#FFFFFF" />
<rect x="15" y="67" width="1" height="3" fill="#FFFFFF" />
<rect x="17" y="67" width="1" height="1" fill="#FFFFFF" />
<rect x="82" y="67" width="1" height="5" fill="#FFFFFF" />
<rect x="14" y="68" width="1" height="3" fill="#FFFFFF" />
<rect x="13" y="69" width="1" height="5" fill="#FFFFFF" />
<rect x="81" y="69" width="1" height="10" fill="#FFFFFF" />
<rect x="12" y="70" width="1" height="8" fill="#FFFFFF" />
<rect x="80" y="71" width="1" height="6" fill="#FFFFFF" />
<rect x="11" y="73" width="1" height="10" fill="#FFFFFF" />
<rect x="79" y="73" width="1" height="2" fill="#FFFFFF" />
<rect x="82" y="76" width="1" height="4" fill="#FFFFFF" />
<rect x="10" y="77" width="1" height="10" fill="#FFFFFF" />
<rect x="83" y="78" width="1" height="4" fill="#FFFFFF" />
<rect x="84" y="79" width="1" height="5" fill="#FFFFFF" />
<rect x="54" y="81" width="4" height="2" fill="#FFFFFF" />
<rect x="85" y="81" width="1" height="4" fill="#FFFFFF" />
<rect x="9" y="82" width="1" height="4" fill="#FFFFFF" />
<rect x="50" y="82" width="4" height="2" fill="#FFFFFF" />
<rect x="58" y="82" width="2" height="2" fill="#FFFFFF" />
<rect x="47" y="83" width="3" height="2" fill="#FFFFFF" />
<rect x="54" y="83" width="1" height="1" fill="#FFFFFF" />
<rect x="57" y="83" width="1" height="1" fill="#FFFFFF" />
<rect x="60" y="83" width="2" height="2" fill="#FFFFFF" />
<rect x="86" y="83" width="1" height="4" fill="#FFFFFF" />
<rect x="44" y="84" width="3" height="2" fill="#FFFFFF" />
<rect x="50" y="84" width="1" height="1" fill="#FFFFFF" />
<rect x="59" y="84" width="1" height="1" fill="#FFFFFF" />
<rect x="62" y="84" width="2" height="2" fill="#FFFFFF" />
<rect x="87" y="84" width="1" height="6" fill="#FFFFFF" />
<rect x="11" y="85" width="2" height="2" fill="#FFFFFF" />
<rect x="40" y="85" width="4" height="2" fill="#FFFFFF" />
<rect x="47" y="85" width="1" height="1" fill="#FFFFFF" />
<rect x="61" y="85" width="1" height="1" fill="#FFFFFF" />
<rect x="64" y="85" width="2" height="2" fill="#FFFFFF" />
<rect x="13" y="86" width="2" height="2" fill="#FFFFFF" />
<rect x="35" y="86" width="5" height="2" fill="#FFFFFF" />
<rect x="44" y="86" width="1" height="1" fill="#FFFFFF" />
<rect x="63" y="86" width="1" height="1" fill="#FFFFFF" />
<rect x="66" y="86" width="2" height="2" fill="#FFFFFF" />
<rect x="88" y="86" width="1" height="4" fill="#FFFFFF" />
<rect x="12" y="87" width="1" height="1" fill="#FFFFFF" />
<rect x="15" y="87" width="2" height="2" fill="#FFFFFF" />
<rect x="31" y="87" width="4" height="2" fill="#FFFFFF" />
<rect x="40" y="87" width="1" height="1" fill="#FFFFFF" />
<rect x="65" y="87" width="1" height="1" fill="#FFFFFF" />
<rect x="68" y="87" width="2" height="2" fill="#FFFFFF" />
<rect x="14" y="88" width="1" height="1" fill="#FFFFFF" />
<rect x="17" y="88" width="2" height="2" fill="#FFFFFF" />
<rect x="27" y="88" width="4" height="2" fill="#FFFFFF" />
<rect x="35" y="88" width="1" height="1" fill="#FFFFFF" />
<rect x="67" y="88" width="1" height="1" fill="#FFFFFF" />
<rect x="70" y="88" width="2" height="2" fill="#FFFFFF" />
<rect x="83" y="88" width="4" height="2" fill="#FFFFFF" />
<rect x="89" y="88" width="1" height="2" fill="#FFFFFF" />
<rect x="16" y="89" width="1" height="1" fill="#FFFFFF" />
<rect x="19" y="89" width="2" height="2" fill="#FFFFFF" />
<rect x="23" y="89" width="4" height="2" fill="#FFFFFF" />
<rect x="31" y="89" width="1" height="1" fill="#FFFFFF" />
<rect x="69" y="89" width="1" height="1" fill="#FFFFFF" />
<rect x="72" y="89" width="2" height="2" fill="#FFFFFF" />
<rect x="77" y="89" width="6" height="2" fill="#FFFFFF" />
<rect x="18" y="90" width="1" height="1" fill="#FFFFFF" />
<rect x="21" y="90" width="2" height="2" fill="#FFFFFF" />
<rect x="27" y="90" width="1" height="1" fill="#FFFFFF" />
<rect x="71" y="90" width="1" height="1" fill="#FFFFFF" />
<rect x="74" y="90" width="3" height="2" fill="#FFFFFF" />
<rect x="83" y="90" width="1" height="1" fill="#FFFFFF" />
<rect x="20" y="91" width="1" height="1" fill="#FFFFFF" />
<rect x="23" y="91" width="1" height="1" fill="#FFFFFF" />
<rect x="73" y="91" width="1" height="1" fill="#FFFFFF" />
<rect x="77" y="91" width="1" height="1" fill="#FFFFFF" />
</svg>